PathFileType	4	(X/Y/Z)	Patient4_TMGait_0pt8_01_right_41.trc.trc
DataRate	CameraRate	NumFrames	NumMarkers	Units	OrigDataRate	OrigDataStartFrame	OrigNumFrames
85.889570552147	85.889570552147	4	33	mm	85.889570552147	53	       141
Frame#	Time	Sacral			L.Shoulder			Chest			R.Shoulder			Neck			R.ASIS			L.ASIS			R.Thigh.Superior			R.Thigh.Lateral			R.Thigh.Inferior			R.Patella			L.Thigh.Superior			L.Thigh.Lateral			L.Thigh.Inferior			L.Patella			L.Shank.Superior			L.Shank.Lateral			L.Shank.Inferior			R.Shank.Superior			R.Shank.Lateral			R.Shank.Inferior			R.Heel			R.Midfoot.Superior			R.Midfoot.Lateral			R.Toe			L.Heel			L.Midfoot.Lateral			L.Midfoot.Superior			L.Toe			L.Elbow			L.Wrist			R.Elbow			R.Wrist			
		X1	Y1	Z1	X2	Y2	Z2	X3	Y3	Z3	X4	Y4	Z4	X5	Y5	Z5	X6	Y6	Z6	X7	Y7	Z7	X8	Y8	Z8	X9	Y9	Z9	X10	Y10	Z10	X11	Y11	Z11	X12	Y12	Z12	X13	Y13	Z13	X14	Y14	Z14	X15	Y15	Z15	X16	Y16	Z16	X17	Y17	Z17	X18	Y18	Z18	X19	Y19	Z19	X20	Y20	Z20	X21	Y21	Z21	X22	Y22	Z22	X23	Y23	Z23	X24	Y24	Z24	X25	Y25	Z25	X26	Y26	Z26	X27	Y27	Z27	X28	Y28	Z28	X29	Y29	Z29	X30	Y30	Z30	X31	Y31	Z31	X32	Y32	Z32	X33	Y33	Z33	

53	46.615428571429	864.896049456256	1010.098086880223	516.008953906956	1016.283722678123	1439.647547093173	324.624159379910	1141.293552594405	1368.281026303978	468.939744919752	1083.378164557771	1435.702840052758	655.516883295644	1023.866566274004	1497.975483060533	483.023405837872	1100.538292425369	946.714749082615	610.755305337832	1060.795927662775	966.271413846590	338.609925261280	1118.526640164749	738.639050064418	582.519717145195	1026.786473182950	636.106866965993	645.143169194640	1094.115278628322	577.447622541304	563.907559240251	1084.695117436713	493.084981665363	567.723711688504	1155.675078942484	798.755955717342	362.321201458391	1118.885334398559	666.138086670825	286.475478304083	1232.012743162895	614.254514379535	337.778894777720	1255.398002286378	529.898889244284	329.828299716057	1206.297407730428	452.487268661380	328.976587600902	1079.972242478622	372.330172006764	287.649917960806	1106.652841898316	245.614779516068	345.031825105617	1057.061363471354	405.957666795234	573.688483676465	986.025933834440	301.378494545546	633.937510390927	1027.745201172287	207.729263590874	567.363551565523	892.665341647727	42.633448210463	534.984905494548	1065.391525427087	98.273678811359	568.700789292594	977.595400320533	37.056873252064	607.637965200224	1185.081409138217	46.240124080641	591.726821404630	944.749938165601	130.328588506369	393.807029763512	1007.772522897828	102.158097479961	310.033798872560	1107.634969135092	140.189853085773	326.411884871122	1211.795433682967	55.548183731751	292.213512533727	964.219804562917	1084.850849998689	223.041363338689	1046.760991057444	836.960272569487	217.440738729164	1158.091933047464	1091.546819693320	768.283509356395	1340.365331550546	905.157448435948	762.081129044150	
54	46.627071428571	863.998239316390	1010.040887438093	516.920962383679	1015.168023818831	1438.755817988734	324.700638996970	1140.901084205789	1367.612321338800	468.443174134303	1084.289844647983	1435.652521244790	655.201837225845	1023.852020488612	1497.453597720394	483.070921586967	1099.717664774099	946.183038396282	611.130264924706	1059.375264493801	965.923089813937	338.872606671379	1114.913275459435	737.500452906728	582.384325116249	1021.871056853130	635.920234111453	645.560266808891	1087.789191584376	576.456302595371	564.098160934599	1077.342909887138	492.449631295597	567.861487413811	1154.805644527163	799.832082911434	363.228032925098	1119.299734986876	666.808354167453	287.026717229307	1232.024439371079	615.665425687277	339.066659812940	1256.942220574871	533.325626595300	330.968655658306	1212.242123664103	454.965215132652	329.415557429728	1092.239830577438	366.626068252024	286.975759398438	1127.698950279470	241.648006617411	343.669139745059	1049.226303266766	405.600446444072	573.754790804627	977.990608571647	301.237621225164	634.095775658442	1019.049351418116	207.523245244356	567.297674984785	883.282881231872	42.623415534693	534.966014927954	1056.011081788260	98.219416606914	568.704348442183	968.199561472211	37.055908889705	607.635400634926	1175.697755203193	46.133847388233	591.758975916000	974.660479143565	115.222691215614	391.320107902598	1039.553549602505	91.878847764724	307.596833325828	1136.463838938248	136.394836480353	324.482789473363	1246.084885949578	59.118007215249	290.255215680620	955.236678334418	1084.685311075115	225.357645407077	1018.531170138397	831.640293202923	218.719686904019	1170.310921819930	1095.079744364999	768.578026156048	1364.093869629518	920.963192974251	758.467541964770	
55	46.638714285714	863.252873428224	1009.893818521924	517.689984982150	1014.295302136579	1437.759529201222	324.620456369796	1140.643576497386	1366.820887382736	467.873138557856	1085.193380959707	1435.508309931584	654.749991916481	1023.922897148911	1496.815261568136	482.934772746430	1098.997122522831	945.530814172941	611.429978510397	1058.153611222603	965.358535039925	339.030176349754	1111.361626779623	736.260334168786	582.221998694241	1017.037640689633	635.671043948673	645.951116154083	1081.510652393518	575.438085895484	564.229195612816	1070.071722619720	491.758978499471	567.963470484113	1153.616678998867	800.078586057943	364.045577264228	1118.878773515429	666.786748023660	287.529620961121	1230.947967188332	615.963121225816	340.511466501290	1257.185821806512	535.894110799501	332.318031267748	1217.025595554243	457.075700079895	329.902378591092	1104.221234562835	360.801865486872	286.185466175842	1148.591401079689	238.299422422788	342.220171914107	1041.416568360425	405.212429927891	573.811696499037	969.989984125044	301.079149618694	634.292013100656	1010.333500955235	207.306601493347	567.232405866546	873.886382547686	42.611566234093	534.943249141937	1046.614783045054	98.165583385659	568.700522491435	958.793216412309	37.049282928914	607.641441503584	1166.310555042930	46.037282395398	591.779327843070	1005.511996166436	101.068277235419	388.627139184615	1072.099380561524	82.767111737928	305.048264470895	1165.464448874835	133.743802148875	322.498567913590	1280.183331102899	64.395702462320	288.465446227374	946.308799163004	1084.790993758211	227.397346788142	990.846026320806	828.228464863524	220.160541773416	1181.831904545331	1098.863952354303	768.695771406113	1386.475222814852	938.083047491433	754.378496806384	
56	46.650357142857	862.680800625726	1009.652142114449	518.316090004709	1013.671597482902	1436.668618140180	324.379917720998	1140.523447437137	1365.913114817934	467.231141117907	1086.076342611993	1435.265926968078	654.162671960955	1024.077361002816	1496.062240780805	482.616090942170	1098.392578026218	944.763584674951	611.653048610362	1057.154536991189	964.572210801907	339.098363861485	1107.918434911258	734.923216769210	582.067468717157	1012.325154257835	635.357339512690	646.321174786561	1075.336283689936	574.397464204125	564.310683906011	1062.939483274549	491.005317819607	568.031075269514	1152.119565229109	799.472000034929	364.756546888524	1117.628831515643	666.068974975393	287.938960580174	1228.861457850732	615.174607380832	342.036480871521	1256.226411293572	537.606548576290	333.830760824629	1220.678177301086	458.834357864196	330.409500021688	1115.831140887726	355.024776934463	285.305882666570	1169.082018623640	235.740279506545	340.745072218568	1033.685828466414	404.784598266936	573.864687957951	962.056985071041	300.905560633783	634.527718802443	1001.618342817924	207.072003500588	567.171624980601	864.476299111479	42.597257637327	534.923108065992	1037.205351127985	98.110088863620	568.693642047757	949.377219038626	37.035734625745	607.658527991927	1156.923330147828	45.945262463778	591.792232794789	1036.898815705498	88.249545873129	385.843135798873	1104.997655979147	75.089638858978	302.517960230727	1194.264832785988	132.408810624634	320.552128020782	1313.638770697006	71.441576347925	286.980829440546	937.413512909883	1085.212554205051	229.147270918250	964.018485458688	826.603348970169	221.779815618640	1192.665418805023	1102.828469027022	768.611861281626	1407.364634842850	956.374451679806	749.883408360859	
